# Blender v2.92.0 OBJ File: 'livropica.blend'
# www.blender.org
mtllib livropica.mtl
o Cube
v 8.509999 2.250000 -1.050000
v -8.510001 2.250000 -1.050000
v 8.509999 2.250000 1.050000
v -8.510001 2.250000 1.050000
v 8.510001 27.750000 -1.050000
v -8.509999 27.750000 -1.050000
v 8.510001 27.750000 1.050000
v -8.509999 27.750000 1.050000
v -1.000000 15.000000 1.000000
v 1.000000 15.000000 1.000000
v -1.000000 15.000000 -1.000000
v 1.000000 15.000000 -1.000000
vt 0.625044 0.500960
vt 0.992890 0.502253
vt 0.993536 0.523567
vt 0.625519 0.524440
vt 0.373917 0.522703
vt 0.622864 0.522654
vt 0.621881 0.779177
vt 0.373570 0.778076
vt 0.375505 0.221057
vt 0.624967 0.221161
vt 0.624913 0.244283
vt 0.375327 0.243765
vt 0.006504 0.501083
vt 0.374094 0.501962
vt 0.373917 0.521795
vt 0.006655 0.520472
vt 0.374094 0.501254
vt 0.000000 0.000000
vt 1.000000 0.000000
vt 1.000000 1.000000
vt 0.000000 1.000000
vn 1.0000 -0.0000 0.0000
vn 0.0000 0.0000 1.0000
vn 0.0000 1.0000 0.0000
vn -1.0000 0.0000 0.0000
vn 0.0000 -1.0000 0.0000
vn 0.0000 0.0000 -1.0000
usemtl Material
s off
f 1/1/1 5/2/1 7/3/1 3/4/1
f 4/5/2 3/6/2 7/7/2 8/8/2
f 8/9/3 7/10/3 5/11/3 6/12/3
f 6/13/4 2/14/4 4/15/4 8/16/4
f 2/17/5 1/1/5 3/4/5 4/5/5
f 6/12/6 5/11/6 1/1/6 2/17/6
f 9/18/3 10/19/3 12/20/3 11/21/3
o Plane
v -41.073864 2.199400 3.738037
v 100.186417 2.199400 3.738037
v -41.073864 2.199400 -155.861008
v 100.186417 2.199400 -155.861008
vt 0.000000 0.000000
vt 1.000000 0.000000
vt 1.000000 1.000000
vt 0.000000 1.000000
vn 0.0000 1.0000 0.0000
usemtl Material.001
s off
f 13/22/7 14/23/7 16/24/7 15/25/7
o Plane.001
v -114.219345 2.199400 123.228027
v 27.040939 2.199400 123.228027
v -114.219345 2.199400 -36.371017
v 27.040939 2.199400 -36.371017
vt 0.000000 0.000000
vt 1.000000 0.000000
vt 1.000000 1.000000
vt 0.000000 1.000000
vn 0.0000 1.0000 0.0000
usemtl Material.002
s off
f 17/26/8 18/27/8 20/28/8 19/29/8
